<svg width="560" height="526" viewBox="0 0 560 526" fill="none" xmlns="http://www.w3.org/2000/svg">
    <path
        d="M98.9695 257.613L198.555 174.051L352.824 357.901L253.239 441.464C202.47 484.064 126.779 477.442 84.1787 426.673C41.5785 375.904 48.2005 300.213 98.9695 257.613Z"
        fill="#37C2CD" stroke="#453749" stroke-width="10" />
    <path
        d="M305.792 84.1787C356.561 41.5785 432.252 48.2005 474.852 98.9695C517.452 149.738 510.83 225.429 460.061 268.029L360.476 351.592L206.207 167.741L305.792 84.1787Z"
        fill="#FF6158" stroke="#453749" stroke-width="10" />
    <path
        d="M76.1624 407L294.915 319.998L335.52 368.389L260.663 429L242.162 444L232.662 450L222.162 455L210.162 459.5L204.162 461L197.662 462.5L185.162 464.5L172.662 465L157.662 463L142.162 460L127.662 454L120.662 450.5L114.162 446.5L108.662 443L103.162 438.5L93.1625 429.5L84.1625 419L76.1624 407Z"
        fill="#289AB2" />
    <path
        d="M98.9695 257.613L198.555 174.051L352.824 357.901L253.239 441.464C202.47 484.064 126.779 477.442 84.1787 426.673C41.5785 375.904 48.2005 300.213 98.9695 257.613Z"
        stroke="#453749" stroke-width="10" />
    <path
        d="M481.52 117.07L262.768 204.072L222.162 155.681L297.02 95.0696L315.52 80.0694L325.02 74.0694L335.52 69.0694L347.52 64.5695L353.52 63.0696L360.02 61.5696L372.52 59.5697L385.02 59.0698L400.02 61.0696L415.52 64.0696L430.02 70.0696L437.02 73.5696L443.52 77.5696L449.02 81.0696L454.52 85.5696L464.52 94.5696L473.52 105.07L481.52 117.07Z"
        fill="#DD4B47" />
    <path
        d="M305.792 84.1787C356.561 41.5785 432.252 48.2005 474.852 98.9695C517.452 149.738 510.83 225.429 460.061 268.029L360.476 351.592L206.207 167.741L305.792 84.1787Z"
        stroke="#453749" stroke-width="10" />
    <path
        d="M278.162 147C340.453 147 391.162 198.816 391.162 263C391.162 327.184 340.453 379 278.162 379C215.872 379 165.162 327.184 165.162 263C165.162 198.816 215.872 147 278.162 147Z"
        fill="#FFF4E4" stroke="#453749" stroke-width="10" />
    <path
        d="M278.438 276C276.336 276.004 274.31 275.25 272.773 273.889C271.236 272.528 270.303 270.663 270.162 268.673V227.85C270.162 226.82 270.377 225.799 270.792 224.846C271.208 223.894 271.818 223.028 272.586 222.299C273.355 221.57 274.267 220.992 275.271 220.598C276.275 220.203 277.352 220 278.438 220C280.536 220.133 282.502 221.018 283.937 222.476C285.371 223.935 286.167 225.856 286.162 227.85V268.673C286.162 270.616 285.349 272.48 283.9 273.854C282.452 275.228 280.487 276 278.438 276Z"
        fill="#453749" />
    <path
        d="M277.612 276C276.316 275.941 275.051 275.588 273.909 274.965C272.767 274.343 271.778 273.468 271.017 272.405C270.107 270.628 269.915 268.563 270.483 266.646C271.052 264.729 272.335 263.111 274.061 262.135L324.286 232.35C325.915 231.835 327.667 231.89 329.261 232.505C330.856 233.119 332.2 234.259 333.078 235.74C333.956 237.221 334.317 238.958 334.102 240.671C333.888 242.385 333.111 243.975 331.896 245.188L281.163 274.973L277.612 276Z"
        fill="#453749" />
    <path
        d="M278.162 161C257.989 161 238.268 166.982 221.494 178.19C204.721 189.398 191.647 205.328 183.927 223.966C176.207 242.604 174.187 263.113 178.122 282.899C182.058 302.685 191.773 320.86 206.038 335.125C220.303 349.39 238.477 359.104 258.263 363.04C278.049 366.976 298.558 364.956 317.196 357.236C335.834 349.516 351.764 336.442 362.972 319.668C374.18 302.894 380.162 283.174 380.162 263C380.162 249.605 377.524 236.341 372.398 223.966C367.272 211.591 359.759 200.347 350.287 190.875C340.816 181.404 329.571 173.89 317.196 168.764C304.821 163.638 291.557 161 278.162 161ZM343.258 320.92L331.469 309.643L324.806 316.307L336.082 328.095C321.334 340.887 302.776 348.455 283.288 349.623V333.734H273.037V349.623C254.656 348.6 237.072 341.781 222.806 330.146L234.082 318.869L227.419 311.693L215.63 323.482C201.949 309.88 193.431 291.938 191.539 272.739H206.916V263H191.027C190.966 242.858 197.844 223.309 210.504 207.643L221.781 218.92L228.956 212.256L217.68 200.467C232.543 185.832 252.214 177.09 273.037 175.864V192.266H282.776V175.864C303.724 177.194 323.521 185.912 338.645 200.467L326.343 212.256L333.519 219.432L345.308 207.643C358.19 223.219 365.257 242.788 365.298 263H348.384V272.739H364.786C362.573 290.586 355.076 307.364 343.258 320.92Z"
        fill="#453749" />
    <circle cx="279.5" cy="264.5" r="12.5" fill="#453749" />
</svg>